<mxfile host="app.diagrams.net" modified="2021-07-07T18:50:43.515Z" agent="5.0 (Windows NT 10.0; Win64; x64) AppleWebKit/537.36 (KHTML, like Gecko) Chrome/91.0.4472.124 Safari/537.36" etag="HdNb276Wo2MPRkuv0ejR" version="14.8.4" type="github">
  <diagram id="MKC3KvgnumIo2S4MMBME" name="Page-1">
    <mxGraphModel dx="1038" dy="547" grid="1" gridSize="10" guides="1" tooltips="1" connect="1" arrows="1" fold="1" page="1" pageScale="1" pageWidth="827" pageHeight="1169" math="0" shadow="0">
      <root>
        <mxCell id="0" />
        <mxCell id="1" parent="0" />
        <mxCell id="EZXIYaAHLllIIzHb-TZz-1" value="Single Node Ports how it works in Kubernets&amp;nbsp;" style="rounded=0;whiteSpace=wrap;html=1;fillColor=#dae8fc;strokeColor=#6c8ebf;" vertex="1" parent="1">
          <mxGeometry x="130" y="40" width="490" height="40" as="geometry" />
        </mxCell>
        <mxCell id="EZXIYaAHLllIIzHb-TZz-2" value="" style="rounded=0;whiteSpace=wrap;html=1;" vertex="1" parent="1">
          <mxGeometry x="390" y="120" width="410" height="350" as="geometry" />
        </mxCell>
        <mxCell id="EZXIYaAHLllIIzHb-TZz-16" style="edgeStyle=orthogonalEdgeStyle;rounded=0;orthogonalLoop=1;jettySize=auto;html=1;entryX=0.01;entryY=0.356;entryDx=0;entryDy=0;entryPerimeter=0;" edge="1" parent="1" source="EZXIYaAHLllIIzHb-TZz-3" target="EZXIYaAHLllIIzHb-TZz-2">
          <mxGeometry relative="1" as="geometry" />
        </mxCell>
        <mxCell id="EZXIYaAHLllIIzHb-TZz-3" value="User Communication&amp;nbsp;" style="whiteSpace=wrap;html=1;aspect=fixed;fillColor=#d5e8d4;strokeColor=#82b366;" vertex="1" parent="1">
          <mxGeometry x="80" y="180" width="130" height="130" as="geometry" />
        </mxCell>
        <mxCell id="EZXIYaAHLllIIzHb-TZz-4" value="Single Working Node&amp;nbsp;" style="rounded=0;whiteSpace=wrap;html=1;fillColor=#fff2cc;strokeColor=#d6b656;" vertex="1" parent="1">
          <mxGeometry x="490" y="90" width="230" height="30" as="geometry" />
        </mxCell>
        <mxCell id="EZXIYaAHLllIIzHb-TZz-5" value="Node - IP = 192.168.0.5" style="rounded=0;whiteSpace=wrap;html=1;" vertex="1" parent="1">
          <mxGeometry x="520" y="120" width="160" height="40" as="geometry" />
        </mxCell>
        <mxCell id="EZXIYaAHLllIIzHb-TZz-7" value="&lt;br&gt;&lt;br&gt;&lt;br&gt;&lt;br&gt;&lt;br&gt;&lt;br&gt;&lt;br&gt;&lt;br&gt;&lt;br&gt;PODS" style="rounded=0;whiteSpace=wrap;html=1;" vertex="1" parent="1">
          <mxGeometry x="580" y="290" width="190" height="161" as="geometry" />
        </mxCell>
        <mxCell id="EZXIYaAHLllIIzHb-TZz-9" value="Containers&amp;nbsp;" style="rounded=0;whiteSpace=wrap;html=1;fillColor=#f8cecc;strokeColor=#b85450;" vertex="1" parent="1">
          <mxGeometry x="615" y="330" width="120" height="90" as="geometry" />
        </mxCell>
        <mxCell id="EZXIYaAHLllIIzHb-TZz-10" value="10.244.0.10" style="rounded=0;whiteSpace=wrap;html=1;fillColor=#fff2cc;strokeColor=#d6b656;" vertex="1" parent="1">
          <mxGeometry x="615" y="290" width="120" height="20" as="geometry" />
        </mxCell>
        <mxCell id="EZXIYaAHLllIIzHb-TZz-11" value="Target Port = 80&amp;nbsp;" style="rounded=0;whiteSpace=wrap;html=1;fillColor=#1ba1e2;strokeColor=#006EAF;fontColor=#ffffff;" vertex="1" parent="1">
          <mxGeometry x="615" y="260" width="120" height="30" as="geometry" />
        </mxCell>
        <mxCell id="EZXIYaAHLllIIzHb-TZz-18" style="edgeStyle=orthogonalEdgeStyle;rounded=0;orthogonalLoop=1;jettySize=auto;html=1;exitX=0.7;exitY=0.1;exitDx=0;exitDy=0;exitPerimeter=0;entryX=0;entryY=0.5;entryDx=0;entryDy=0;" edge="1" parent="1" source="EZXIYaAHLllIIzHb-TZz-12" target="EZXIYaAHLllIIzHb-TZz-11">
          <mxGeometry relative="1" as="geometry">
            <Array as="points">
              <mxPoint x="588" y="230" />
              <mxPoint x="615" y="230" />
            </Array>
          </mxGeometry>
        </mxCell>
        <mxCell id="EZXIYaAHLllIIzHb-TZz-12" value="80" style="shape=or;whiteSpace=wrap;html=1;fillColor=#1ba1e2;strokeColor=#006EAF;fontColor=#ffffff;" vertex="1" parent="1">
          <mxGeometry x="560" y="255" width="40" height="30" as="geometry" />
        </mxCell>
        <mxCell id="EZXIYaAHLllIIzHb-TZz-17" style="edgeStyle=orthogonalEdgeStyle;rounded=0;orthogonalLoop=1;jettySize=auto;html=1;exitX=0.25;exitY=1;exitDx=0;exitDy=0;" edge="1" parent="1" source="EZXIYaAHLllIIzHb-TZz-14" target="EZXIYaAHLllIIzHb-TZz-15">
          <mxGeometry relative="1" as="geometry" />
        </mxCell>
        <mxCell id="EZXIYaAHLllIIzHb-TZz-14" value="3&lt;br&gt;0&lt;br&gt;0&lt;br&gt;0&lt;br&gt;8" style="rounded=0;whiteSpace=wrap;html=1;fillColor=#d80073;strokeColor=#A50040;fontColor=#ffffff;" vertex="1" parent="1">
          <mxGeometry x="390" y="200" width="30" height="105" as="geometry" />
        </mxCell>
        <mxCell id="EZXIYaAHLllIIzHb-TZz-15" value="Services (its like an Objects, it create the Virutal /Cluster IP)&amp;nbsp;" style="rounded=0;whiteSpace=wrap;html=1;fillColor=#6a00ff;strokeColor=#3700CC;fontColor=#ffffff;" vertex="1" parent="1">
          <mxGeometry x="440" y="240" width="120" height="60" as="geometry" />
        </mxCell>
        <mxCell id="EZXIYaAHLllIIzHb-TZz-20" value="10.244.0.0&amp;nbsp;" style="ellipse;shape=cloud;whiteSpace=wrap;html=1;" vertex="1" parent="1">
          <mxGeometry x="545" y="170" width="225" height="80" as="geometry" />
        </mxCell>
      </root>
    </mxGraphModel>
  </diagram>
</mxfile>
